# xmcd
#
# Track frame offsets:
#	150
#	11466
#	29627
#	46285
#	61298
#	77272
#	97681
#	112611
#	127099
#	142341
#	152459
#	169764
#	186466
#	198251
#	208243
#	220942
#	233551
#	248097
#	263906
#	278920
#	290768
#	305872
#	317083
#	330168
#
# Disc length: 4579 seconds
# Revision: 0
# Processed by: cddbd v1.5.2PL0 Copyright (c) Steve Scherf et al.
# Submitted via: dBpowerAMP V12.0
#
DISCID=5711e118
DTITLE=Hicks with Sticks - A Town North of Bakersfield (2005 Demo)
DYEAR=2005
DGENRE=Country
TTITLE0=License to Twang - Jinx Jones
TTITLE1=Hurricane - Kitty Rose
TTITLE2=Big Red Truck - Jenny Kerr Band
TTITLE3=Helicopter - Richard March
TTITLE4=Dreaming - Shut-Ins
TTITLE5=Gone to Stay - Loretta Lynch
TTITLE6=I'll Match You - Tom Armstrong
TTITLE7=This Property's Condemned - Red Meat
TTITLE8=Evil Six - The Chop Tops
TTITLE9=This Record Sucks - 77 el Deora
TTITLE10=Holdin' Back - The Cowlicks
TTITLE11=Behind the Bleachers - The Mother Truckers
TTITLE12=My Mama Told Me - Cari Lee and The Saddle-Ites
TTITLE13=Comin' on Through - Johnny Dilks and The Visitacion Valley Boys
TTITLE14=Baby That's Alright - Tom Huebner
TTITLE15=Pacific Time - Valerie Jay and The Americanos
TTITLE16=Forever and a Day - The Bootcuts
TTITLE17=Grandaddy - A.J. Roach
TTITLE18=Elvis Makes His Move - Kay Wheeler
TTITLE19=Old Enough - Dave Crimmen
TTITLE20=Older Than Him - Kathi Kamen Goldmark and Kathleen Enright Salvia
TTITLE21=Doin' Well - Audrey Auld
TTITLE22=If This Is Country Music (I Want My Old Job Back) - Rusty Evans
TTITLE23=These Boots Are Made for Walkin' - Amy Tan
EXTD=
EXTT0=
EXTT1=
EXTT2=
EXTT3=
EXTT4=
EXTT5=
EXTT6=
EXTT7=
EXTT8=
EXTT9=
EXTT10=
EXTT11=
EXTT12=
EXTT13=
EXTT14=
EXTT15=
EXTT16=
EXTT17=
EXTT18=
EXTT19=
EXTT20=
EXTT21=
EXTT22=
EXTT23=
PLAYORDER=
